<?xml version="1.0" standalone="no"?>
<!DOCTYPE svg PUBLIC "-//W3C//DTD SVG 20010904//EN"
 "http://www.w3.org/TR/2001/REC-SVG-20010904/DTD/svg10.dtd">
<svg version="1.0" xmlns="http://www.w3.org/2000/svg"
 width="3500.000000pt" height="1440.000000pt" viewBox="0 0 3500.000000 1440.000000"
 preserveAspectRatio="xMidYMid meet">

<g transform="translate(0.000000,1440.000000) scale(0.100000,-0.100000)"
fill="#000000" stroke="none">
<path d="M15830 10137 c-286 -461 -403 -659 -402 -677 1 -14 29 -176 62 -361
33 -185 60 -343 60 -352 0 -8 -106 -97 -236 -197 l-235 -182 17 -26 c9 -15 71
-105 136 -201 66 -96 122 -179 125 -186 4 -12 -70 -44 -267 -117 -30 -11 -58
-23 -62 -27 -3 -3 384 -276 860 -607 l867 -600 3 -70 3 -69 341 -205 c187
-113 346 -206 353 -208 7 -2 189 92 403 208 l391 211 -7 37 c-4 20 -7 52 -7
71 0 35 0 35 863 626 475 326 863 596 862 601 -1 5 -74 37 -163 72 -89 35
-163 64 -164 66 -2 1 23 41 55 87 32 46 97 141 144 210 l86 125 -238 185
c-194 149 -238 188 -235 204 3 11 32 175 66 365 41 234 58 352 52 368 -15 42
-798 1300 -804 1294 -4 -4 -114 -317 -244 -697 -131 -379 -241 -696 -244 -702
-4 -8 -66 66 -155 182 -82 107 -152 195 -155 195 -3 0 -108 -102 -233 -227
l-228 -228 -229 229 c-126 126 -233 226 -238 223 -5 -3 -74 -91 -153 -195 -82
-108 -148 -185 -151 -179 -4 7 -113 323 -244 702 -130 380 -240 693 -244 697
-4 4 -189 -286 -411 -645z m2983 -272 c-3 -9 -8 -14 -10 -11 -3 3 -2 9 2 15 9
16 15 13 8 -4z m328 -332 c13 -16 12 -17 -3 -4 -10 7 -18 15 -18 17 0 8 8 3
21 -13z m-30 -70 c13 -16 12 -17 -3 -4 -10 7 -18 15 -18 17 0 8 8 3 21 -13z
m80 0 c13 -16 12 -17 -3 -4 -17 13 -22 21 -14 21 2 0 10 -8 17 -17z m-53 -54
c-3 -8 -7 -3 -11 10 -4 17 -3 21 5 13 5 -5 8 -16 6 -23z m59 -31 c-3 -7 -5 -2
-5 12 0 14 2 19 5 13 2 -7 2 -19 0 -25z m200 0 c-3 -8 -6 -5 -6 6 -1 11 2 17
5 13 3 -3 4 -12 1 -19z m-270 -35 c-3 -10 -5 -4 -5 12 0 17 2 24 5 18 2 -7 2
-21 0 -30z m60 -40 c-3 -10 -5 -4 -5 12 0 17 2 24 5 18 2 -7 2 -21 0 -30z
m200 15 c-3 -8 -6 -5 -6 6 -1 11 2 17 5 13 3 -3 4 -12 1 -19z m-710 -30 c-3
-8 -6 -5 -6 6 -1 11 2 17 5 13 3 -3 4 -12 1 -19z m440 -25 c-3 -10 -5 -4 -5
12 0 17 2 24 5 18 2 -7 2 -21 0 -30z m260 5 c-3 -8 -6 -5 -6 6 -1 11 2 17 5
13 3 -3 4 -12 1 -19z m-200 -40 c-3 -7 -5 -2 -5 12 0 14 2 19 5 13 2 -7 2 -19
0 -25z m-70 -35 c-3 -10 -5 -4 -5 12 0 17 2 24 5 18 2 -7 2 -21 0 -30z m260
15 c-3 -8 -6 -5 -6 6 -1 11 2 17 5 13 3 -3 4 -12 1 -19z m-200 -55 c-3 -10 -5
-4 -5 12 0 17 2 24 5 18 2 -7 2 -21 0 -30z m-520 5 c-3 -8 -6 -5 -6 6 -1 11 2
17 5 13 3 -3 4 -12 1 -19z m710 -10 c-3 -7 -5 -2 -5 12 0 14 2 19 5 13 2 -7 2
-19 0 -25z m-347 -8 c6 -11 8 -20 6 -20 -3 0 -10 9 -16 20 -6 11 -8 20 -6 20
3 0 10 -9 16 -20z m-280 0 c-8 -5 -19 -10 -25 -10 -5 0 -3 5 5 10 8 5 20 10
25 10 6 0 3 -5 -5 -10z m367 -27 c-3 -10 -5 -4 -5 12 0 17 2 24 5 18 2 -7 2
-21 0 -30z m-460 -5 c-3 -8 -6 -5 -6 6 -1 11 2 17 5 13 3 -3 4 -12 1 -19z
m710 -10 c-3 -8 -6 -5 -6 6 -1 11 2 17 5 13 3 -3 4 -12 1 -19z m-190 -25 c-3
-10 -5 -4 -5 12 0 17 2 24 5 18 2 -7 2 -21 0 -30z m-70 -30 c-3 -10 -5 -4 -5
12 0 17 2 24 5 18 2 -7 2 -21 0 -30z m-27 7 c6 -11 8 -20 6 -20 -3 0 -10 9
-16 20 -6 11 -8 20 -6 20 3 0 10 -9 16 -20z m277 -12 c-3 -8 -6 -5 -6 6 -1 11
2 17 5 13 3 -3 4 -12 1 -19z m-772 -37 c-6 -5 -25 10 -25 20 0 5 6 4 14 -3 8
-7 12 -15 11 -17z m582 -3 c-3 -7 -5 -2 -5 12 0 14 2 19 5 13 2 -7 2 -19 0
-25z m-127 -8 c6 -11 8 -20 6 -20 -3 0 -10 9 -16 20 -6 11 -8 20 -6 20 3 0 10
-9 16 -20z m307 -12 c-3 -7 -5 -2 -5 12 0 14 2 19 5 13 2 -7 2 -19 0 -25z
m-190 -55 c-3 -10 -5 -4 -5 12 0 17 2 24 5 18 2 -7 2 -21 0 -30z m180 -5 c-3
-7 -5 -2 -5 12 0 14 2 19 5 13 2 -7 2 -19 0 -25z m-247 -18 c6 -11 8 -20 6
-20 -3 0 -10 9 -16 20 -6 11 -8 20 -6 20 3 0 10 -9 16 -20z m237 -32 c-3 -8
-6 -5 -6 6 -1 11 2 17 5 13 3 -3 4 -12 1 -19z m-180 -20 c-3 -7 -5 -2 -5 12 0
14 2 19 5 13 2 -7 2 -19 0 -25z m170 -40 c-3 -7 -5 -2 -5 12 0 14 2 19 5 13 2
-7 2 -19 0 -25z m-10 -50 c-3 -8 -6 -5 -6 6 -1 11 2 17 5 13 3 -3 4 -12 1 -19z
m-10 -60 c-3 -8 -6 -5 -6 6 -1 11 2 17 5 13 3 -3 4 -12 1 -19z m14 -45 c13
-16 12 -17 -3 -4 -10 7 -18 15 -18 17 0 8 8 3 21 -13z m40 -30 c13 -16 12 -17
-3 -4 -17 13 -22 21 -14 21 2 0 10 -8 17 -17z m50 -40 c13 -16 12 -17 -3 -4
-17 13 -22 21 -14 21 2 0 10 -8 17 -17z m44 -33 c10 -11 16 -20 13 -20 -3 0
-13 9 -23 20 -10 11 -16 20 -13 20 3 0 13 -9 23 -20z m46 -37 c13 -16 12 -17
-3 -4 -17 13 -22 21 -14 21 2 0 10 -8 17 -17z m40 -30 c13 -16 12 -17 -3 -4
-17 13 -22 21 -14 21 2 0 10 -8 17 -17z m44 -33 c10 -11 16 -20 13 -20 -3 0
-13 9 -23 20 -10 11 -16 20 -13 20 3 0 13 -9 23 -20z m46 -37 c13 -16 12 -17
-3 -4 -10 7 -18 15 -18 17 0 8 8 3 21 -13z m44 -33 c10 -11 16 -20 13 -20 -3
0 -13 9 -23 20 -10 11 -16 20 -13 20 3 0 13 -9 23 -20z m54 -54 c-3 -3 -11 5
-18 17 -13 21 -12 21 5 5 10 -10 16 -20 13 -22z m-49 -80 c0 -2 -8 -10 -17
-17 -16 -13 -17 -12 -4 4 13 16 21 21 21 13z m-130 -186 c-12 -16 -24 -30 -26
-30 -3 0 4 14 16 30 12 17 24 30 26 30 3 0 -4 -13 -16 -30z m-923 -46 c-3 -3
-12 -4 -19 -1 -8 3 -5 6 6 6 11 1 17 -2 13 -5z m-130 -40 c-3 -3 -12 -4 -19
-1 -8 3 -5 6 6 6 11 1 17 -2 13 -5z m-40 -10 c-3 -3 -12 -4 -19 -1 -8 3 -5 6
6 6 11 1 17 -2 13 -5z m53 -14 c0 -5 -10 -10 -22 -9 -22 0 -22 1 -3 9 11 5 21
9 23 9 1 1 2 -3 2 -9z m-71 -16 c2 -2 -10 -4 -27 -4 -17 0 -34 4 -37 10 -5 9
53 3 64 -6z m-94 -4 c-3 -5 -11 -10 -16 -10 -6 0 -7 5 -4 10 3 6 11 10 16 10
6 0 7 -4 4 -10z m233 -47 c-10 -2 -26 -2 -35 0 -10 3 -2 5 17 5 19 0 27 -2 18
-5z m-100 -10 c-10 -2 -26 -2 -35 0 -10 3 -2 5 17 5 19 0 27 -2 18 -5z m-100
-10 c-10 -2 -26 -2 -35 0 -10 3 -2 5 17 5 19 0 27 -2 18 -5z m-540 -17 c-7 -8
-15 -12 -17 -11 -5 6 10 25 20 25 5 0 4 -6 -3 -14z m440 7 c-10 -2 -26 -2 -35
0 -10 3 -2 5 17 5 19 0 27 -2 18 -5z m-95 -10 c-7 -2 -21 -2 -30 0 -10 3 -4 5
12 5 17 0 24 -2 18 -5z m-95 -10 c-10 -2 -26 -2 -35 0 -10 3 -2 5 17 5 19 0
27 -2 18 -5z m1432 -3 c8 -5 11 -10 5 -10 -5 0 -17 5 -25 10 -8 5 -10 10 -5
10 6 0 17 -5 25 -10z m-1527 -7 c-7 -2 -19 -2 -25 0 -7 3 -2 5 12 5 14 0 19
-2 13 -5z m1672 -53 c3 -6 -1 -7 -9 -4 -18 7 -21 14 -7 14 6 0 13 -4 16 -10z
m-45 -34 c0 -3 -15 -14 -32 -26 l-33 -22 30 26 c31 27 35 29 35 22z m-160
-110 c0 -3 -15 -14 -32 -26 l-33 -22 30 26 c31 27 35 29 35 22z m-190 -130 c0
-2 -8 -10 -17 -17 -16 -13 -17 -12 -4 4 13 16 21 21 21 13z m-190 -130 c0 -3
-15 -14 -32 -26 l-33 -22 30 26 c31 27 35 29 35 22z m-160 -111 c0 -2 -20 -18
-45 -35 -25 -17 -45 -29 -45 -26 0 4 80 64 88 66 1 0 2 -2 2 -5z m-190 -129
c0 -3 -15 -14 -32 -26 l-33 -22 30 26 c31 27 35 29 35 22z m-190 -130 c0 -3
-15 -14 -32 -26 l-33 -22 30 26 c31 27 35 29 35 22z m-453 -338 c-3 -7 -5 -2
-5 12 0 14 2 19 5 13 2 -7 2 -19 0 -25z m10 -60 c-3 -8 -6 -5 -6 6 -1 11 2 17
5 13 3 -3 4 -12 1 -19z m3 -43 c0 -2 -10 -9 -22 -15 -22 -11 -22 -10 -4 4 21
17 26 19 26 11z"/>
<path d="M15440 5622 c0 -17 11 -22 63 -31 35 -6 71 -11 80 -11 16 0 17 -50
17 -659 l0 -659 -63 -11 c-35 -6 -71 -11 -80 -11 -10 0 -17 -8 -17 -20 0 -20
7 -20 391 -20 442 0 478 4 615 71 242 118 379 385 361 699 -19 314 -176 538
-446 634 l-86 31 -417 3 c-409 3 -418 3 -418 -16z m760 -33 c73 -11 169 -52
217 -93 47 -40 99 -124 130 -212 l28 -79 0 -275 c0 -199 -4 -290 -14 -330 -33
-133 -114 -251 -208 -303 -88 -47 -149 -57 -360 -57 l-193 0 0 673 c0 371 3
677 7 680 10 11 321 8 393 -4z"/>
<path d="M16980 5621 c0 -15 12 -21 63 -30 35 -6 71 -11 80 -11 16 0 17 -50
17 -659 l0 -659 -63 -11 c-35 -6 -71 -11 -80 -11 -10 0 -17 -8 -17 -20 0 -19
7 -20 265 -20 251 0 265 1 265 18 0 16 -14 21 -85 31 l-85 13 2 307 3 306 151
3 150 2 54 -135 c48 -118 57 -135 77 -135 l23 0 0 285 0 285 -23 0 c-20 0 -30
-17 -76 -130 l-53 -130 -154 0 -154 0 2 338 3 337 266 3 265 2 70 -185 c61
-164 71 -185 92 -185 l22 0 0 205 0 205 -540 0 c-524 0 -540 -1 -540 -19z"/>
<path d="M18190 5621 c0 -16 9 -21 48 -26 26 -4 63 -10 82 -14 l35 -7 3 -656
2 -656 -85 -13 c-71 -10 -85 -15 -85 -31 0 -17 18 -18 393 -18 444 0 478 4
616 70 155 75 273 220 333 410 20 66 23 95 23 235 0 185 -12 242 -77 375 -57
118 -160 221 -278 278 -137 67 -176 72 -621 72 -378 0 -389 -1 -389 -19z m770
-31 c178 -28 309 -158 355 -352 11 -47 15 -127 15 -319 0 -223 -3 -266 -20
-333 -45 -178 -166 -301 -328 -335 -29 -6 -136 -11 -237 -11 l-185 0 0 680 0
680 168 0 c92 0 196 -5 232 -10z"/>
<path d="M15995 3790 c-28 -11 -48 -37 -40 -51 5 -7 16 -2 32 17 27 32 27 29
-7 -65 -23 -63 -23 -64 -4 -78 43 -32 115 10 136 78 9 32 8 42 -6 64 -25 39
-69 53 -111 35z m93 -28 c16 -20 15 -35 -2 -77 -13 -30 -58 -65 -86 -65 -17 0
-11 31 15 88 13 29 21 60 18 68 -5 13 -1 15 18 9 13 -4 30 -14 37 -23z"/>
<path d="M16514 3781 c-58 -35 -82 -123 -44 -161 33 -33 51 -26 109 45 18 22
3 35 -31 28 -29 -6 -39 -23 -13 -23 8 0 15 -6 15 -13 0 -18 -21 -37 -42 -37
-27 0 -33 44 -13 96 25 66 92 102 78 41 -5 -17 -3 -19 7 -11 17 17 8 49 -15
52 -11 1 -34 -6 -51 -17z"/>
<path d="M16993 3793 c-40 -4 -57 -17 -32 -25 13 -4 -6 -58 -21 -58 -6 0 -8
-5 -5 -10 4 -6 1 -26 -5 -46 -8 -24 -9 -39 -2 -46 6 -6 15 5 24 34 11 34 21
45 46 53 38 11 42 25 7 25 -23 0 -24 2 -13 25 7 16 22 27 44 31 30 6 40 27 11
22 -7 -1 -31 -3 -54 -5z"/>
<path d="M17220 3772 c-32 -33 -54 -99 -44 -137 13 -53 89 -39 131 24 23 35
32 111 13 111 -5 0 -10 -17 -10 -37 0 -70 -65 -143 -97 -110 -34 33 21 147 70
147 22 1 22 1 3 15 -27 20 -33 19 -66 -13z"/>
<path d="M17770 3787 c-15 -7 -26 -23 -28 -37 l-3 -25 20 25 c32 40 34 17 5
-55 -26 -65 -27 -68 -9 -81 68 -50 172 55 139 141 -7 18 -55 45 -81 45 -10 0
-29 -6 -43 -13z m101 -23 c17 -21 4 -84 -23 -110 -29 -28 -78 -42 -78 -23 0 8
13 41 28 74 16 33 27 65 25 72 -5 15 33 5 48 -13z"/>
<path d="M18081 3786 c-17 -20 -42 -128 -35 -151 21 -67 105 -31 132 57 20 67
22 98 7 98 -11 0 -15 -11 -15 -40 0 -74 -48 -155 -80 -135 -17 10 -11 84 10
127 24 50 23 45 6 51 -8 3 -19 0 -25 -7z"/>
<path d="M18363 3789 c-24 -13 -36 -35 -27 -50 3 -5 14 1 24 13 26 31 25 9 -4
-62 l-25 -60 25 -16 c31 -21 68 -12 105 26 36 35 41 106 10 134 -24 21 -79 29
-108 15z m95 -22 c15 -12 16 -58 1 -90 -12 -26 -57 -57 -84 -57 -19 0 -16 14
20 95 12 28 20 56 18 63 -5 13 22 7 45 -11z"/>
<path d="M18703 3793 c-40 -4 -57 -17 -32 -25 13 -4 -6 -58 -21 -58 -6 0 -8
-5 -5 -10 3 -6 1 -26 -6 -45 -8 -22 -10 -38 -4 -44 13 -12 105 -2 105 12 0 6
-16 7 -40 4 -44 -6 -45 -4 -29 42 9 25 16 31 40 31 16 0 29 5 29 10 0 6 -11
10 -25 10 -23 0 -24 2 -13 25 7 16 22 27 44 31 30 6 40 27 11 22 -7 -1 -31 -3
-54 -5z"/>
<path d="M18943 3785 c-43 -30 -26 -64 50 -98 40 -18 45 -28 22 -47 -19 -15
-72 -6 -97 17 -10 9 -21 13 -24 10 -13 -12 6 -37 41 -54 45 -22 86 -9 100 31
8 24 6 31 -16 50 -15 11 -41 29 -58 38 -18 10 -29 22 -26 28 8 13 61 13 85 0
13 -7 21 -7 26 1 18 30 -68 50 -103 24z"/>
<path d="M16282 3738 c-31 -84 -35 -113 -17 -128 13 -11 15 -8 15 16 1 16 10
54 20 84 27 74 27 72 13 77 -6 2 -20 -19 -31 -49z"/>
<path d="M16756 3750 c-28 -71 -35 -117 -20 -137 12 -17 13 -16 14 8 0 29 28
118 42 136 10 13 3 33 -12 33 -4 0 -15 -18 -24 -40z"/>
<path d="M17480 3780 c0 -5 4 -10 9 -10 5 0 14 -15 21 -34 10 -31 9 -35 -31
-74 -22 -23 -38 -46 -34 -52 4 -7 19 5 38 29 17 22 34 38 38 36 4 -3 10 -21
13 -41 5 -26 11 -34 22 -30 9 3 18 6 21 6 3 0 0 6 -6 14 -7 8 -16 28 -20 44
-8 26 -5 34 20 58 16 15 29 37 29 48 0 16 -5 13 -26 -17 -28 -42 -39 -41 -47
3 -5 21 -12 30 -27 30 -11 0 -20 -4 -20 -10z"/>
</g>
</svg>
